<svg width="14" height="11" viewBox="0 0 14 11" fill="none" xmlns="http://www.w3.org/2000/svg">
    <path
        d="M13.2993 0.499837L0.698949 0.500178C0.571377 0.500563 0.44633 0.534135 0.337268 0.59728C0.228207 0.660425 0.139261 0.75075 0.0800047 0.858535C0.0207482 0.966321 -0.00657508 1.08748 0.000976545 1.20898C0.00852817 1.33048 0.0506685 1.44771 0.122861 1.54806L6.42328 10.23C6.68439 10.59 7.31301 10.59 7.57481 10.23L13.8748 1.54769C13.9477 1.44755 13.9904 1.33025 13.9984 1.20855C14.0063 1.08685 13.9792 0.965396 13.9199 0.857386C13.8606 0.749375 13.7714 0.658939 13.6619 0.595902C13.5525 0.532866 13.4271 0.499642 13.2993 0.499837ZM6.99935 8.67659L2.03462 1.83586L11.9637 1.83559L6.99935 8.67659Z"
        fill="black" />
</svg>